<?xml version="1.0" encoding="utf-8"?>
<!-- Generator: Adobe Illustrator 22.1.0, SVG Export Plug-In . SVG Version: 6.00 Build 0)  -->
<svg version="1.1" id="Layer_1" xmlns="http://www.w3.org/2000/svg" xmlns:xlink="http://www.w3.org/1999/xlink" x="0px" y="0px"
	 viewBox="0 0 283.5 283.5" style="enable-background:new 0 0 283.5 283.5;" xml:space="preserve">
<style type="text/css">
	.st0{fill:#737373;}
	.st1{fill:#F25022;}
	.st2{fill:#7FBA00;}
	.st3{fill:#00A4EF;}
	.st4{fill:#FFB900;}
</style>
<g id="Azure_s">
	<g>
		<path class="st0" d="M118.8,147.7l11.4,30.3h-5.8l-2.7-7.5h-11.9l-2.6,7.5h-5.8l11.4-30.3H118.8z M115.6,153.3l-4.5,12.8h9.1
			L115.6,153.3L115.6,153.3z"/>
		<path class="st0" d="M132.7,156.3h17.4v2.1L138.7,174h11.5v4.1H132v-2.4l11.2-15.2h-10.4v-4.2L132.7,156.3L132.7,156.3z"/>
		<path class="st0" d="M171.9,156.3V178h-5.2v-2.9h-0.1c-0.7,1-1.6,1.8-2.7,2.3c-1.1,0.6-2.4,0.8-3.8,0.8c-2.5,0-4.4-0.7-5.8-2.1
			c-1.3-1.4-2-3.7-2-6.7v-13.2h5.2v12.6c0,1.8,0.4,3.2,1.1,4.1c0.7,0.9,1.8,1.4,3.3,1.4s2.6-0.5,3.5-1.5s1.3-2.4,1.3-4v-12.6
			L171.9,156.3L171.9,156.3z"/>
		<path class="st0" d="M187.3,155.9c0.4,0,0.8,0,1.1,0.1s0.6,0.1,0.8,0.2v5.2c-0.3-0.2-0.7-0.4-1.2-0.6c-0.5-0.2-1.1-0.3-1.9-0.3
			c-1.3,0-2.3,0.5-3.2,1.6s-1.3,2.7-1.3,4.9v11h-5.1v-21.7h5.1v3.4h0.1c0.5-1.2,1.2-2.1,2.1-2.8C184.9,156.3,186,155.9,187.3,155.9z
			"/>
		<path class="st0" d="M207.7,172.5v4.2c-0.8,0.5-2,1-3.3,1.3c-1.4,0.3-2.8,0.5-4.4,0.5c-3.3,0-5.9-1-7.7-2.9s-2.8-4.7-2.8-8.2
			c0-3.4,1-6.1,2.9-8.3s4.5-3.3,7.5-3.3s5.3,0.9,7,2.8c1.7,1.8,2.5,4.4,2.5,7.6v2.5h-14.9c0.2,2.2,0.9,3.7,2.1,4.6
			c1.2,0.9,2.7,1.3,4.6,1.3c1.2,0,2.4-0.2,3.5-0.6C205.8,173.6,206.8,173.1,207.7,172.5z M204.4,164.9c0-1.7-0.4-3-1.2-3.9
			s-1.9-1.3-3.3-1.3c-1.2,0-2.3,0.4-3.3,1.3s-1.6,2.2-1.9,3.9H204.4z"/>
	</g>
</g>
<g id="MS-logotype">
	<path class="st0" d="M136,106v30.3h-5.3v-23.8h-0.1l-9.4,23.8h-3.5l-9.6-23.8H108v23.8h-4.9V106h7.5l8.7,22.5h0.1l9.2-22.5H136z
		 M140.4,108.3c0-0.8,0.3-1.6,0.9-2.1c0.6-0.6,1.3-0.9,2.2-0.9s1.6,0.3,2.2,0.9c0.6,0.6,0.9,1.3,0.9,2.1c0,0.8-0.3,1.5-0.9,2.1
		c-0.6,0.6-1.3,0.8-2.2,0.8s-1.6-0.3-2.2-0.9C140.7,109.8,140.4,109.1,140.4,108.3z M146.1,114.6v21.7H141v-21.7
		C141,114.6,146.1,114.6,146.1,114.6z M161.6,132.6c0.8,0,1.6-0.2,2.5-0.5c0.9-0.4,1.8-0.8,2.5-1.4v4.8c-0.8,0.5-1.7,0.8-2.8,1.1
		c-1,0.2-2.2,0.4-3.4,0.4c-3.2,0-5.8-1-7.8-3s-3-4.6-3-7.7c0-3.5,1-6.4,3.1-8.6c2-2.3,4.9-3.4,8.7-3.4c1,0,1.9,0.1,2.9,0.4
		c1,0.2,1.8,0.5,2.3,0.9v4.9c-0.8-0.6-1.6-1-2.4-1.3c-0.8-0.3-1.7-0.5-2.5-0.5c-2,0-3.6,0.7-4.9,2c-1.2,1.3-1.9,3.1-1.9,5.3
		s0.6,3.9,1.8,5.1C157.9,132,159.6,132.6,161.6,132.6z M181.2,114.2c0.4,0,0.8,0,1.1,0.1s0.6,0.1,0.8,0.2v5.2
		c-0.3-0.2-0.7-0.4-1.2-0.6s-1.1-0.3-1.9-0.3c-1.3,0-2.3,0.5-3.2,1.6s-1.3,2.7-1.3,4.9v11h-5.1v-21.7h5.1v3.4h0.1
		c0.5-1.2,1.2-2.1,2.1-2.8C178.8,114.6,179.9,114.2,181.2,114.2z M183.4,125.8c0-3.6,1-6.4,3-8.5s4.8-3.2,8.5-3.2c3.4,0,6.1,1,8,3
		s2.9,4.8,2.9,8.2c0,3.5-1,6.3-3,8.4c-2,2.1-4.8,3.1-8.3,3.1c-3.4,0-6-1-8-3C184.4,131.9,183.4,129.2,183.4,125.8z M188.8,125.6
		c0,2.3,0.5,4,1.5,5.2s2.5,1.8,4.4,1.8s3.3-0.6,4.2-1.8c1-1.2,1.5-3,1.5-5.3s-0.5-4.1-1.5-5.3c-1-1.2-2.4-1.8-4.2-1.8
		c-1.9,0-3.3,0.6-4.4,1.9C189.3,121.5,188.8,123.3,188.8,125.6z M213.4,120.3c0,0.7,0.2,1.3,0.7,1.7c0.5,0.4,1.5,0.9,3.1,1.6
		c2,0.8,3.5,1.7,4.3,2.8c0.8,1,1.2,2.3,1.2,3.7c0,2-0.8,3.7-2.4,4.9c-1.6,1.2-3.7,1.9-6.4,1.9c-0.9,0-1.9-0.1-3-0.3s-2-0.5-2.8-0.8
		v-5c0.9,0.6,1.9,1.2,3,1.5c1.1,0.4,2,0.6,2.9,0.6c1.2,0,2-0.2,2.6-0.5s0.8-0.9,0.8-1.6c0-0.7-0.3-1.3-0.9-1.8s-1.7-1-3.2-1.7
		c-1.9-0.8-3.2-1.7-4-2.7s-1.2-2.2-1.2-3.8c0-2,0.8-3.6,2.3-4.8c1.6-1.3,3.6-1.9,6.1-1.9c0.8,0,1.6,0.1,2.6,0.3
		c0.9,0.2,1.7,0.4,2.4,0.7v4.9c-0.7-0.5-1.5-0.8-2.4-1.2c-0.9-0.3-1.8-0.5-2.7-0.5c-1,0-1.7,0.2-2.3,0.6
		C213.6,119.1,213.4,119.6,213.4,120.3z M224.9,125.8c0-3.6,1-6.4,3-8.5s4.8-3.2,8.5-3.2c3.4,0,6.1,1,8,3s2.9,4.8,2.9,8.2
		c0,3.5-1,6.3-3,8.4c-2,2.1-4.8,3.1-8.3,3.1c-3.4,0-6-1-8-3C225.9,131.9,224.9,129.2,224.9,125.8z M230.2,125.6c0,2.3,0.5,4,1.5,5.2
		s2.5,1.8,4.4,1.8s3.3-0.6,4.2-1.8c1-1.2,1.5-3,1.5-5.3s-0.5-4.1-1.5-5.3c-1-1.2-2.4-1.8-4.2-1.8c-1.9,0-3.3,0.6-4.4,1.9
		C230.7,121.5,230.2,123.3,230.2,125.6z M264.2,118.8h-7.6v17.5h-5.2v-17.5h-3.6v-4.2h3.6v-3c0-2.3,0.7-4.2,2.2-5.6
		c1.5-1.5,3.4-2.2,5.7-2.2c0.6,0,1.2,0,1.6,0.1c0.5,0.1,0.9,0.2,1.3,0.3v4.4c-0.2-0.1-0.5-0.2-0.9-0.4c-0.4-0.1-0.9-0.2-1.5-0.2
		c-1.1,0-1.9,0.3-2.5,1s-0.9,1.7-0.9,3v2.6h7.6v-4.9l5.1-1.6v6.4h5.2v4.2h-5.2V129c0,1.3,0.2,2.3,0.7,2.8s1.3,0.8,2.3,0.8
		c0.3,0,0.7-0.1,1.1-0.2c0.4-0.1,0.8-0.3,1.1-0.5v4.2c-0.3,0.2-0.9,0.4-1.6,0.5s-1.5,0.2-2.2,0.2c-2.2,0-3.8-0.6-4.9-1.7
		c-1.1-1.1-1.6-2.9-1.6-5.2v-11.1C264,118.8,264.2,118.8,264.2,118.8z"/>
</g>
<g id="MS-symbol">
	<g>
		<rect x="9.6" y="106" class="st1" width="34.2" height="34.2"/>
		<rect x="47.4" y="106" class="st2" width="34.2" height="34.2"/>
		<rect x="9.6" y="143.8" class="st3" width="34.2" height="34.2"/>
		<rect x="47.4" y="143.8" class="st4" width="34.2" height="34.2"/>
	</g>
	<g>
		<rect x="9.6" y="106" class="st1" width="34.2" height="34.2"/>
		<rect x="47.4" y="106" class="st2" width="34.2" height="34.2"/>
		<rect x="9.6" y="143.8" class="st3" width="34.2" height="34.2"/>
		<rect x="47.4" y="143.8" class="st4" width="34.2" height="34.2"/>
	</g>
</g>
</svg>
