<?xml version="1.0" encoding="utf-8"?>
<svg width="64.9" height="64.9" viewBox="0 0 64.9 64.9">
  <circle cx="32.455002" cy="32.455002" r="32.455002" fill="#1a171b" />
  <path d="m 46.644,12.009001 c -3.297,0.115 -6.175,1.932 -8.317,4.446 -2.372,2.756 -3.95,6.025 -5.087,9.362 -2.034,-1.667 -3.603,-3.825 -6.866,-4.766 -2.522,-0.724 -5.171,-0.425 -7.607,1.39 -1.154,0.862 -1.949,2.165 -2.327,3.39 -0.979,3.183 1.029,6.016 1.941,7.033 l 1.994,2.137 c 0.411,0.419 1.401,1.512 0.917,3.079 -0.523,1.704 -2.577,2.807 -4.684,2.157 -0.941,-0.287 -2.293,-0.988 -1.99,-1.975 0.125,-0.404 0.414,-0.706 0.569,-1.055 0.142,-0.3 0.21,-0.525 0.253,-0.657 0.385,-1.257 -0.141,-2.892 -1.487,-3.307 -1.256,-0.385 -2.541,-0.08 -3.039,1.537 -0.565,1.837 0.314,5.171 5.023,6.623 5.517,1.695 10.184,-1.309 10.846,-5.227 0.417,-2.454 -0.691,-4.277 -2.721,-6.622 l -1.654,-1.829 c -1.002,-1.001 -1.346,-2.707 -0.309,-4.018 0.875,-1.106 2.121,-1.578 4.162,-1.023 2.979,0.809 4.307,2.876 6.523,4.543 -0.915,3.001 -1.513,6.013 -2.054,8.714 l -0.33,2.014 c -1.584,8.308 -2.793,12.87 -5.935,15.489 -0.633,0.45 -1.538,1.124 -2.902,1.171 -0.715,0.022 -0.946,-0.47 -0.956,-0.684 -0.017,-0.502 0.406,-0.732 0.687,-0.958 0.42,-0.229 1.055,-0.609 1.012,-1.826 -0.046,-1.438 -1.237,-2.685 -2.959,-2.628 -1.29,0.044 -3.256,1.258 -3.182,3.48 0.077,2.295 2.216,4.015 5.441,3.906 1.724,-0.059 5.574,-0.761 9.368,-5.271 4.416,-5.17 5.651,-11.097 6.58,-15.435 l 1.037,-5.727 c 0.576,0.069 1.192,0.115 1.862,0.131 5.5,0.116 8.251,-2.733 8.292,-4.805 0.027,-1.254 -0.823,-2.488 -2.013,-2.46 -0.852,0.024 -1.922,0.591 -2.179,1.769 -0.251,1.156 1.75,2.199 0.186,3.212 -1.111,0.719 -3.103,1.226 -5.908,0.814 l 0.51,-2.819 c 1.041,-5.346 2.325,-11.922 7.196,-12.082 0.355,-0.018 1.654,0.016 1.684,0.875 0.009,0.287 -0.062,0.36 -0.398,1.017 -0.342,0.512 -0.471,0.948 -0.455,1.449 0.047,1.365 1.085,2.262 2.586,2.208 2.01,-0.065 2.588,-2.022 2.555,-3.027 -0.081,-2.361 -2.57,-3.853 -5.865,-3.745 z" fill="#ffffff" />
</svg>
