<?xml version="1.0" encoding="utf-8"?>
<!-- Generator: Adobe Illustrator 15.0.2, SVG Export Plug-In . SVG Version: 6.00 Build 0)  -->
<!DOCTYPE svg PUBLIC "-//W3C//DTD SVG 1.1//EN" "http://www.w3.org/Graphics/SVG/1.1/DTD/svg11.dtd">
<svg version="1.1" xmlns="http://www.w3.org/2000/svg" xmlns:xlink="http://www.w3.org/1999/xlink" x="0px" y="0px" width="202px"
     height="223.666px" viewBox="0 0 202 223.666" enable-background="new 0 0 202 223.666" xml:space="preserve">
<g id="fond">
</g>
  <g id="compacte">
</g>
  <g id="rectangle">
</g>
  <g id="carré">
	<rect y="0" fill="#FFFFFF" width="202" height="223.667"/>
    <g>
		<g>
			<path d="M155.951,84.448c0,30.976-25.109,56.087-56.084,56.087c-30.973,0-56.081-25.111-56.081-56.087
				c0-30.971,25.107-56.079,56.081-56.079C130.842,28.369,155.951,53.477,155.951,84.448z"/>
          <path fill="#FFFFFF" d="M124.389,49.119c-5.697,0.195-10.67,3.34-14.373,7.68c-4.1,4.765-6.824,10.411-8.791,16.18
				c-3.514-2.882-6.223-6.611-11.864-8.233c-4.359-1.253-8.936-0.737-13.146,2.399c-1.992,1.489-3.367,3.738-4.02,5.859
				c-1.692,5.498,1.778,10.396,3.354,12.151l3.447,3.691c0.709,0.725,2.422,2.613,1.584,5.319c-0.9,2.947-4.451,4.85-8.092,3.731
				c-1.627-0.499-3.963-1.71-3.439-3.413c0.215-0.699,0.715-1.225,0.984-1.821c0.244-0.521,0.363-0.907,0.438-1.14
				c0.665-2.169-0.245-4.994-2.57-5.713c-2.171-0.666-4.391-0.138-5.252,2.655c-0.977,3.174,0.543,8.935,8.681,11.441
				c9.535,2.935,17.597-2.259,18.742-9.026c0.721-4.239-1.195-7.392-4.701-11.441l-2.859-3.163c-1.73-1.729-2.324-4.677-0.533-6.942
				c1.512-1.912,3.664-2.726,7.191-1.768c5.15,1.396,7.443,4.969,11.271,7.851c-1.578,5.187-2.613,10.392-3.547,15.059l-0.574,3.481
				c-2.736,14.352-4.826,22.235-10.256,26.76c-1.094,0.779-2.658,1.943-5.014,2.027c-1.238,0.037-1.637-0.814-1.654-1.186
				c-0.027-0.865,0.703-1.264,1.188-1.652c0.727-0.396,1.824-1.053,1.748-3.156c-0.078-2.484-2.137-4.639-5.111-4.541
				c-2.229,0.075-5.625,2.171-5.497,6.011c0.131,3.967,3.827,6.938,9.401,6.75c2.979-0.102,9.633-1.312,16.188-9.105
				c7.631-8.935,9.766-19.175,11.372-26.671l1.793-9.897c0.992,0.119,2.059,0.2,3.217,0.228c9.504,0.201,14.256-4.72,14.328-8.302
				c0.049-2.167-1.42-4.302-3.479-4.251c-1.471,0.041-3.32,1.022-3.762,3.057c-0.436,1.995,3.023,3.798,0.32,5.553
				c-1.92,1.242-5.361,2.116-10.209,1.407l0.881-4.872c1.799-9.238,4.018-20.6,12.436-20.878c0.615-0.029,2.857,0.026,2.91,1.512
				c0.014,0.493-0.109,0.623-0.689,1.757c-0.592,0.884-0.814,1.64-0.785,2.504c0.08,2.356,1.873,3.908,4.471,3.818
				c3.473-0.116,4.469-3.496,4.412-5.233C134.383,51.511,130.08,48.931,124.389,49.119z"/>
		</g>
      <g>
			<g>
				<path d="M120.689,163.885c5.664,0,9.465,4.094,9.465,9.756c0,5.338-3.873,9.758-9.465,9.758c-5.627,0-9.502-4.42-9.502-9.758
					C111.188,167.979,114.988,163.885,120.689,163.885z M120.689,180.623c4.018,0,5.809-3.654,5.809-6.982
					c0-3.543-2.154-6.979-5.809-6.979c-3.689,0-5.846,3.436-5.846,6.979C114.844,176.969,116.633,180.623,120.689,180.623z"/>
			</g>
        <path d="M110.717,165.619v-1.297h-4.934v-1.771c0-2.521,0.365-4.424,3.324-4.424c0.057,0,0.113,0.004,0.17,0.006
				c0.006,0,0.006-0.008,0.014-0.008c0.818,0.061,1.502-0.609,1.549-1.43l0.061-1.125c-0.695-0.111-1.428-0.221-2.303-0.221
				c-5.078,0-6.248,2.961-6.248,7.494v1.479h-4.387v1.447c0.111,0.75,0.754,1.328,1.537,1.328c0.004,0,0.008,0.004,0.012,0.004
				h2.838v15.859h1.893c0.004,0,0.002-0.002,0.006-0.002c0.785,0,1.43-0.588,1.535-1.346v-14.512h3.436
				C110.031,167.074,110.68,166.428,110.717,165.619z"/>
        <path d="M64.961,164.322c-0.007,0-0.01,0.004-0.018,0.004c-0.725,0-1.426,0.498-1.731,1.17l-4.728,14.25h-0.073l-4.623-14.242
				c-0.302-0.676-1.007-1.178-1.735-1.178c-0.007,0-0.01-0.004-0.018-0.004h-2.395l6.322,17.396
				c0.221,0.621,0.659,1.572,0.659,1.973c0,0.365-1.024,4.605-4.095,4.605c-0.076,0-0.152-0.008-0.228-0.014
				c-0.783-0.043-1.375,0.504-1.507,1.346l-0.093,1.189c0.621,0.109,1.244,0.256,2.341,0.256c4.53,0,5.883-4.131,7.162-7.711
				l6.871-19.041H64.961z"/>
        <path d="M43.123,168.109c-2.838-1.451-5.941-2.438-5.996-5.357c0.009-3.104,2.859-3.918,5.056-3.914
				c0.009-0.002,0.019-0.002,0.023-0.002c0.954,0,1.717,0.094,2.461,0.258c0.011,0,0.009-0.012,0.021-0.012
				c0.787,0.057,1.447-0.559,1.541-1.334l0.062-1.127c-1.439-0.357-2.945-0.539-4.254-0.539c-4.777,0.029-8.322,2.434-8.334,7.018
				c0.006,4.01,2.709,5.562,5.614,6.971c2.851,1.369,5.972,2.502,5.999,5.809c-0.018,3.453-3.348,4.727-5.644,4.73
				c-1.343-0.004-2.801-0.34-4.028-0.727c-0.77-0.127-1.401,0.553-1.5,1.451l-0.104,1.004c1.688,0.547,3.419,1.021,5.159,1.021
				c0,0,0.002,0,0.005,0c0.005,0,0.009,0,0.017,0c5.35-0.039,9.507-2.172,9.523-7.711C48.736,171.373,46.016,169.58,43.123,168.109z
				"/>
        <path d="M95.08,182.961c0.002,0,0.002-0.002,0.004-0.002c0.742,0,1.359-0.518,1.518-1.215v-10.732
				c0-4.057-1.717-7.127-6.471-7.127c-1.68,0-4.492,0.951-5.771,3.619c-0.988-2.523-3.143-3.619-5.299-3.619
				c-2.742,0-4.605,0.986-5.919,3.143h-0.074v-1.158c-0.012-0.854-0.701-1.543-1.557-1.543c-0.006,0-0.01-0.004-0.016-0.004h-1.644
				v18.639h1.86c0.002,0,0.002-0.002,0.004-0.002c0.861,0,1.559-0.697,1.559-1.557c0-0.023,0.008-0.033,0.013-0.049v-7.783
				c0-3.473,1.387-6.908,4.895-6.908c2.777,0,3.328,2.887,3.328,5.189v11.109h1.885c0.002,0,0.002-0.002,0.006-0.002
				c0.812,0,1.471-0.623,1.543-1.416v-7.973c0-3.473,1.389-6.908,4.896-6.908c2.777,0,3.326,2.887,3.326,5.189v11.109H95.08z"/>
        <path d="M148.164,182.961c0.004,0,0.004-0.002,0.006-0.002c0.836,0,1.512-0.66,1.551-1.486v-9.584
				c0-5.006-2.158-8.004-6.982-8.004c-2.594,0-5.076,1.279-6.102,3.4h-0.072v-1.393c0-0.002-0.004-0.002-0.004-0.006
				c0-0.861-0.697-1.561-1.557-1.561c-0.008,0-0.012-0.004-0.018-0.004h-1.75v18.639h1.889c0,0,0-0.002,0.004-0.002
				c0.816,0,1.48-0.633,1.545-1.434v-7.189c0-4.529,1.756-7.674,5.664-7.674c2.998,0.184,3.945,2.303,3.945,6.65v9.648H148.164z"/>
        <path d="M166.656,164.322c-0.006,0-0.008,0.004-0.018,0.004c-0.723,0-1.426,0.498-1.73,1.17l-4.725,14.25h-0.076l-4.623-14.242
				c-0.303-0.676-1.008-1.178-1.736-1.178c-0.006,0-0.01-0.004-0.016-0.004h-2.395l6.322,17.396c0.219,0.621,0.66,1.572,0.66,1.973
				c0,0.365-1.025,4.605-4.096,4.605c-0.076,0-0.152-0.008-0.229-0.014c-0.781-0.043-1.373,0.504-1.506,1.346l-0.092,1.189
				c0.621,0.109,1.244,0.256,2.338,0.256c4.533,0,5.885-4.131,7.164-7.711l6.871-19.041H166.656z"/>
		</g>
	</g>
</g>
</svg>
